# Blender v3.0.0 OBJ File: ''
# www.blender.org
mtllib tree.mtl
o pCylinder4_Mesh
v 0.963437 -0.250059 -0.157910
v 0.595437 0.882529 -0.157910
v -0.595437 0.882529 -0.157910
v -0.963437 -0.250058 -0.157910
v 0.000000 -0.950036 -0.157910
v 0.336170 -0.109228 2.069219
v 0.207764 0.285964 2.069219
v -0.207765 0.285964 2.069219
v -0.336171 -0.109228 2.069219
v -0.000000 -0.353470 2.069219
v 0.518845 -0.150241 0.132709
v 0.320664 0.459697 0.132709
v -0.320664 0.459697 0.132709
v -0.518845 -0.150241 0.132709
v -0.000000 -0.527204 0.132709
v 0.423867 -0.128918 0.346611
v -0.000000 -0.436875 0.346611
v -0.423867 -0.128917 0.346610
v -0.261964 0.369368 0.346611
v 0.261964 0.369368 0.346611
v 1.198792 -0.000000 2.049593
v -0.000000 1.198792 2.049593
v -1.198792 0.000000 2.049592
v -0.000000 -1.198792 2.049593
v 1.695348 -0.000000 3.248385
v -0.000000 1.695348 3.248385
v -1.695349 0.000000 3.248385
v -0.000001 -1.695348 3.248385
v 1.198791 -0.000000 4.447177
v -0.000001 1.198792 4.447177
v -1.198793 0.000000 4.447177
v -0.000001 -1.198792 4.447177
v -0.000000 0.000000 2.066847
v -0.000001 0.000000 4.676733
vt 0.223350 0.145707
vt 0.251587 0.054918
vt 0.325506 0.071266
vt 0.318523 0.164961
vt 0.264580 0.510143
vt 0.227242 0.405998
vt 0.322861 0.394576
vt 0.336522 0.489966
vt 0.213867 0.314804
vt 0.317800 0.311211
vt 0.214316 0.232783
vt 0.318788 0.234438
vt 0.134962 0.124285
vt 0.163927 0.031497
vt 0.198637 0.540794
vt 0.134793 0.421627
vt 0.122142 0.320381
vt 0.123174 0.232300
vt 0.872687 0.181623
vt 0.872521 0.238430
vt 0.872181 0.295237
vt 0.875776 0.361964
vt 0.882381 0.431837
vt 0.874243 0.114912
vt 0.516091 0.636229
vt 0.664487 0.636228
vt 0.663994 0.762782
vt 0.516091 0.762782
vt 0.848457 0.636228
vt 0.850192 0.762782
vt 0.183726 0.636229
vt 0.367695 0.636228
vt 0.368188 0.762782
vt 0.181990 0.762782
vt 0.664487 0.889336
vt 0.516091 0.889337
vt 0.848457 0.889336
vt 0.367695 0.889336
vt 0.183726 0.889337
vt 0.604686 0.534771
vt 0.769207 0.534771
vt 0.260207 0.534771
vt 0.424728 0.534771
vt 0.600552 0.978336
vt 0.754982 0.978336
vt 0.277200 0.978336
vt 0.431630 0.978336
vn 0.6337 0.2059 0.7457
vn 0.6273 0.2038 0.7516
vn 0.9464 0.3075 0.0988
vn 0.9466 0.3076 0.0968
vn -0.0000 0.6350 0.7725
vn 0.0000 0.9944 0.1054
vn -0.6273 0.2038 0.7516
vn -0.6337 0.2059 0.7457
vn -0.9466 0.3076 0.0968
vn -0.9464 0.3075 0.0988
vn -0.4168 -0.5737 0.7051
vn -0.4191 -0.5769 0.7011
vn -0.5857 -0.8061 0.0850
vn -0.5856 -0.8060 0.0861
vn 0.4191 -0.5769 0.7011
vn 0.4168 -0.5737 0.7051
vn 0.5856 -0.8060 0.0861
vn 0.5857 -0.8061 0.0850
vn 0.5664 0.1840 0.8033
vn -0.0000 0.5664 0.8241
vn -0.5664 0.1840 0.8033
vn -0.3806 -0.5238 0.7621
vn 0.3806 -0.5238 0.7621
vn 0.5873 -0.8084 0.0391
vn -0.5873 -0.8084 0.0391
vn -0.9501 0.3087 0.0448
vn 0.0000 0.9988 0.0484
vn 0.9501 0.3087 0.0448
vn 0.6786 0.6786 -0.2811
vn -0.6786 0.6786 -0.2811
vn -0.6786 -0.6786 -0.2811
vn 0.6786 -0.6786 -0.2811
vn 0.6786 0.6786 0.2811
vn -0.6786 0.6786 0.2811
vn -0.6786 -0.6786 0.2811
vn 0.6786 -0.6786 0.2811
vn -0.0144 -0.0144 -0.9998
vn 0.0144 -0.0144 -0.9998
vn 0.0144 0.0144 -0.9998
vn -0.0144 0.0144 -0.9998
vn 0.1848 0.1848 0.9652
vn -0.1848 0.1848 0.9652
vn -0.1848 -0.1848 0.9652
vn 0.1848 -0.1848 0.9652
usemtl Tree
s 1
f 11/1/1 12/2/2 20/3/3 16/4/4
f 12/5/5 13/6/5 19/7/6 20/8/6
f 13/6/7 14/9/8 18/10/9 19/7/10
f 14/9/11 15/11/12 17/12/13 18/10/14
f 15/11/15 11/1/16 16/4/17 17/12/18
f 1/13/19 2/14/19 12/2/2 11/1/1
f 2/15/20 3/16/20 13/6/5 12/5/5
f 3/16/21 4/17/21 14/9/8 13/6/7
f 4/17/22 5/18/22 15/11/12 14/9/11
f 5/18/23 1/13/23 11/1/16 15/11/15
f 17/12/18 16/4/17 6/19/24 10/20/24
f 18/10/14 17/12/13 10/20/25 9/21/25
f 19/7/10 18/10/9 9/21/26 8/22/26
f 20/8/6 19/7/6 8/22/27 7/23/27
f 16/4/4 20/3/3 7/24/28 6/19/28
f 21/25/29 22/26/29 26/27/29 25/28/29
f 22/26/30 23/29/30 27/30/30 26/27/30
f 23/31/31 24/32/31 28/33/31 27/34/31
f 24/32/32 21/25/32 25/28/32 28/33/32
f 25/28/33 26/27/33 30/35/33 29/36/33
f 26/27/34 27/30/34 31/37/34 30/35/34
f 27/34/35 28/33/35 32/38/35 31/39/35
f 28/33/36 25/28/36 29/36/36 32/38/36
f 22/26/37 21/25/37 33/40/37
f 23/29/38 22/26/38 33/41/38
f 24/32/39 23/31/39 33/42/39
f 21/25/40 24/32/40 33/43/40
f 29/36/41 30/35/41 34/44/41
f 30/35/42 31/37/42 34/45/42
f 31/39/43 32/38/43 34/46/43
f 32/38/44 29/36/44 34/47/44
