# Blender v2.91.0 OBJ File: ''
# www.blender.org
mtllib monkey_i.mtl
o Suzanne
v -0.576947 0.484034 0.020155
v -0.576947 -0.484034 0.020155
v -0.640278 -0.103827 0.159850
v -0.641930 0.100956 0.158959
v -0.790033 -0.393837 0.378491
v -0.648438 -0.156250 0.437500
v -0.598653 0.278507 0.462918
v -0.791020 0.393098 0.377848
v -0.544369 -0.464863 0.413575
v -0.530197 0.556448 0.315928
v -0.566534 -0.633369 0.242106
v -0.809523 0.318941 0.114315
v -0.808700 -0.320532 0.114372
v -0.796875 0.000000 -0.187500
v 0.886247 -0.161855 0.425610
v 0.680184 -0.073286 -0.282871
v -0.573527 0.356728 -0.927976
v -0.606666 -0.249936 -0.224852
v -0.631966 -0.801472 0.401529
v -0.778395 0.262416 0.387254
v -0.790464 -0.246989 0.560878
v -0.750000 0.000000 -0.195312
v -0.742188 0.000000 -0.140625
v -0.504209 0.788297 0.034569
v -0.639416 0.816663 0.389995
v -0.763512 0.249049 0.754018
v -0.809708 0.004469 0.371789
v -0.792388 0.091305 -0.118257
v -0.780086 -0.115383 -0.174545
v -0.770108 0.101798 -0.288732
v -0.702949 -0.094934 -0.794266
v -0.698286 0.080825 -0.840205
v -0.752534 0.412973 0.388532
v -0.693617 0.553093 0.260929
v -0.718920 0.414005 0.087832
v -0.810780 -0.308409 0.386538
v -0.756619 -0.222894 0.132351
v -0.697299 -0.414528 0.069190
v -0.677448 -0.560609 0.249865
v -0.753801 0.219586 0.131121
v -0.632235 0.002492 0.430919
v -0.701714 -0.250629 0.772171
v -0.361039 0.720984 0.431843
v -0.507440 0.237773 -0.217792
v -0.400528 -0.789853 0.107807
v -0.184289 0.345166 0.964651
v 0.455613 0.844518 0.402894
v -0.341908 0.214052 -0.410230
v -0.400826 0.286777 -0.948688
v -0.510006 -0.369324 -0.984917
v -0.294486 -0.169166 -0.447829
v 0.498892 -0.187004 0.931783
v 0.380830 0.718625 0.694284
v -0.152219 -0.465608 0.900982
v -0.362756 -0.717688 0.437234
v 0.366392 -0.868110 0.478144
v 0.350270 0.635407 -0.090076
v 0.134441 -0.676861 -0.079389
v 0.444984 1.188433 0.031706
v 0.192084 -0.861481 0.344903
v 0.320186 -0.821158 0.044305
v 0.397339 1.169142 0.429542
v 0.354455 0.983413 0.301681
v 0.321420 0.830086 0.045466
v 0.139283 0.708888 -0.071127
v 0.191879 0.851212 0.363598
v 0.425792 -1.149961 0.364428
v 0.505400 1.305483 0.466542
v 0.467281 -1.291283 0.466559
v 0.461148 -1.188219 0.021499
v 0.374711 -0.696472 -0.061959
vt 0.898598 0.617974
vt 0.862836 0.612569
vt 0.920246 0.524366
vt 0.861242 0.797997
vt 0.897038 0.794500
vt 0.937425 0.867615
vt 0.819696 0.677517
vt 0.821329 0.731220
vt 0.949695 0.747972
vt 0.968392 0.593858
vt 0.327169 0.241570
vt 0.420733 0.159776
vt 0.500449 0.191834
vt 0.696892 0.314498
vt 0.649161 0.292264
vt 0.722985 0.252887
vt 0.522683 0.361282
vt 0.610070 0.357705
vt 0.622043 0.403752
vt 0.605866 0.325024
vt 0.443006 0.328666
vt 0.425851 0.400001
vt 0.340548 0.318412
vt 0.390655 0.296384
vt 0.539963 0.179759
vt 0.614612 0.163564
vt 0.581249 0.274621
vt 0.459133 0.274213
vt 0.552289 0.059336
vt 0.512024 0.075456
vt 0.487210 0.061933
vt 0.525748 0.079745
vt 0.501157 0.164332
vt 0.519132 0.185382
vt 0.519841 0.200843
vt 0.517577 0.190607
vt 0.619747 0.263868
vt 0.419150 0.266113
vt 0.413540 0.324355
vt 0.524536 0.433700
vt 0.726864 0.329913
vt 0.771516 0.317876
vt 0.645399 0.068937
vt 0.539877 0.021327
vt 0.394896 0.019215
vt 0.483995 0.049530
vt 0.399481 0.082116
vt 0.145989 0.246575
vt 0.129433 0.363048
vt 0.000144 0.259113
vt 0.871997 0.327847
vt 0.847168 0.217268
vt 0.260275 0.326922
vt 0.825956 0.455045
vt 0.763149 0.431455
vt 0.279331 0.457858
vt 0.217614 0.477521
vt 0.822052 0.212701
vt 0.203277 0.217482
vt 0.873772 0.055878
vt 0.794601 0.172901
vt 0.854987 0.141773
vt 0.963770 0.173241
vt 0.170926 0.194638
vt 0.164437 0.026966
vt 0.197939 0.137332
vt 0.543242 0.809242
vt 0.543004 0.733946
vt 0.665640 0.759342
vt 0.434950 0.738485
vt 0.407241 0.671070
vt 0.604030 0.830760
vt 0.403013 0.833180
vt 0.343481 0.856604
vt 0.323771 0.732922
vt 0.356774 0.669174
vt 0.196773 0.840060
vt 0.235548 0.169661
vt 0.271952 0.812762
vt 0.216926 0.734553
vt 0.044323 0.542309
vt 0.106750 0.582589
vt 0.109547 0.741725
vt 0.269185 0.610136
vt 0.836111 0.536446
vt 0.831228 0.873128
vt 0.918898 0.699697
vt 0.274899 0.328118
vt 0.011829 0.155367
vt 0.927090 0.385070
vt 0.966681 0.256668
vt 0.658213 0.585676
vt 0.488530 0.604411
vt 0.049526 0.748824
vt 0.742304 0.597357
vn -0.7597 -0.6385 -0.1235
vn -0.5531 0.8113 -0.1895
vn -0.7925 0.5709 0.2145
vn -0.7950 -0.5671 0.2154
vn -0.5958 -0.6537 0.4667
vn -0.0965 0.4838 0.8699
vn -0.2903 -0.6635 0.6896
vn -0.4701 0.3701 -0.8013
vn -0.6806 -0.4781 -0.5552
vn -0.8985 0.2178 0.3811
vn -0.9936 0.0087 0.1127
vn -0.9920 0.1178 0.0445
vn -0.9689 0.2427 0.0482
vn -0.9638 -0.2462 -0.1020
vn -0.8649 0.3527 -0.3572
vn -0.6367 -0.7417 -0.2111
vn -0.9969 0.0066 0.0785
vn -0.5921 0.0114 -0.8058
vn -0.8499 -0.5124 -0.1227
vn -0.9183 0.3727 -0.1338
vn 0.0000 1.0000 0.0000
vn -0.5717 -0.4777 0.6670
vn -0.8564 0.3831 -0.3461
vn -0.7663 -0.5153 0.3837
vn -0.4309 -0.7243 -0.5382
vn -0.8561 0.4567 -0.2418
vn 0.9519 -0.1657 0.2576
vn -0.1784 0.8073 0.5625
vn -0.1908 -0.8162 0.5453
vn 0.0614 -0.5518 0.8317
vn 0.2711 -0.9463 0.1762
vn 0.9359 -0.1378 -0.3242
vn 0.9873 0.1310 -0.0903
vn 0.3826 0.9202 0.0824
vn 0.2599 0.2765 0.9252
vn -0.1993 -0.8202 0.5363
vn -0.2131 0.7637 0.6094
vn 0.8520 0.3224 0.4126
vn 0.7842 -0.2967 0.5450
vn -0.2090 -0.9514 0.2260
vn -0.1536 0.8837 0.4421
vn 0.1920 -0.4650 -0.8643
vn 0.7865 -0.5920 -0.1760
vn 0.7990 0.4730 -0.3714
vn -0.9448 -0.3218 -0.0615
vn -0.6799 -0.3026 0.6680
vn -0.6499 -0.5612 -0.5125
vn 0.0514 -0.9132 -0.4043
vn -0.4308 0.8718 -0.2333
vn -0.7544 0.5589 -0.3443
vn 0.0646 0.9460 -0.3175
vn -0.7057 -0.5975 -0.3809
vn -0.9332 -0.3549 -0.0566
vn -0.9438 0.3227 -0.0714
vn -0.1493 -0.1194 0.9816
vn 0.9843 -0.1472 -0.0971
vn -0.6311 -0.6570 -0.4124
vn -0.6023 0.7922 -0.0987
vn -0.1561 0.3176 -0.9353
vn -0.1572 -0.3127 -0.9367
vn -0.8644 0.4981 0.0686
vn -0.1784 -0.1357 0.9746
vn -0.6035 -0.7959 0.0483
vn -0.4911 0.8505 0.1882
vn -0.6939 -0.5507 -0.4639
vn -0.9762 0.0004 -0.2169
vn -0.8657 -0.3502 0.3576
vn -0.9659 0.2427 -0.0899
vn -0.9178 0.3926 -0.0599
vn -0.9919 -0.0145 -0.1262
vn -0.9852 0.1265 -0.1158
vn -0.7876 -0.1362 -0.6010
vn 0.1924 0.2658 -0.9446
vn -0.6508 -0.0094 0.7592
vn 0.9692 0.1167 -0.2167
vn -0.9911 -0.0233 -0.1310
vn -0.4586 0.8886 -0.0052
vn -0.9144 -0.1605 -0.3717
vn 0.1936 -0.2462 -0.9497
vn -0.7726 -0.5652 0.2891
vn 0.0551 0.5304 0.8459
vn 0.3186 0.9468 0.0456
vn -0.0908 0.0700 -0.9934
vn 0.3709 -0.9090 0.1900
vn 0.2892 0.9481 0.1319
vn 0.7996 0.3002 0.5202
vn 0.8108 -0.5033 -0.2987
vn 0.8998 0.3802 -0.2142
vn -0.0134 -0.0788 0.9968
vn -0.7706 -0.1747 0.6129
vn 0.7072 -0.4821 0.5172
vn 0.2062 -0.5699 0.7954
vn -0.0668 0.3790 -0.9230
vn -0.8168 0.3077 0.4880
vn -0.2077 -0.9503 0.2320
vn -0.1958 0.9528 0.2320
vn -0.0346 0.9206 0.3889
vn -0.3372 0.8544 -0.3954
vn -0.2168 -0.6303 -0.7455
vn 0.9770 0.2047 0.0592
vn 0.0392 -0.3509 -0.9356
vn -0.7739 0.6302 -0.0621
vn -0.4497 -0.8397 -0.3043
vn 0.9719 -0.2349 0.0153
vn -0.6335 0.2466 0.7334
vn -0.9522 0.2887 -0.1000
vn 0.0587 -0.1570 -0.9859
vn -0.0121 0.2170 -0.9761
vn -0.3996 0.0686 0.9141
vn -0.6029 -0.1651 0.7805
vn 0.9812 -0.0818 -0.1750
usemtl None
s off
f 5/1/1 13/2/1 11/3/1
f 12/4/2 8/5/2 10/6/2
f 13/2/3 5/1/3 3/7/3
f 8/5/4 12/4/4 4/8/4
f 8/5/5 4/8/5 7/9/5
f 8/5/6 7/9/6 10/6/6
f 11/3/7 9/10/7 5/1/7
f 24/11/8 44/12/8 28/13/8
f 19/14/9 39/15/9 45/16/9
f 27/17/10 21/18/10 42/19/10
f 21/18/11 27/17/11 36/20/11
f 20/21/12 27/17/12 26/22/12
f 25/23/13 20/21/13 26/22/13
f 19/14/14 21/18/14 39/15/14
f 24/11/15 34/24/15 25/23/15
f 29/25/16 18/26/16 37/27/16
f 37/27/17 40/28/17 29/25/17
f 50/29/18 32/30/18 17/31/18
f 29/25/19 31/32/19 50/29/19
f 32/30/20 30/33/20 17/31/20
f 14/34/21 23/35/21 22/36/21
f 14/34/22 23/35/22 28/13/22
f 23/35/23 29/25/23 40/28/23
f 28/13/24 23/35/24 40/28/24
f 18/26/25 39/15/25 38/37/25
f 34/24/26 24/11/26 35/38/26
f 20/21/27 34/24/27 33/39/27
f 27/17/28 42/19/28 41/40/28
f 26/22/29 27/17/29 41/40/29
f 19/14/30 55/41/30 42/19/30
f 45/16/31 55/42/31 19/14/31
f 51/43/32 50/29/32 49/44/32
f 51/45/33 49/46/33 48/47/33
f 49/46/34 17/31/34 48/47/34
f 53/48/35 46/49/35 52/50/35
f 54/51/36 55/42/36 56/52/36
f 43/53/37 46/49/37 53/48/37
f 41/54/38 42/55/38 55/42/38
f 26/56/39 41/57/39 43/53/39
f 60/58/40 56/52/40 55/42/40
f 53/48/41 66/59/41 43/53/41
f 16/60/42 58/61/42 51/43/42
f 71/62/43 15/63/43 56/52/43
f 47/64/44 16/65/44 57/66/44
f 67/67/45 70/68/45 69/69/45
f 70/68/46 61/70/46 58/71/46
f 67/67/47 69/72/47 60/73/47
f 45/16/48 58/61/48 60/58/48
f 66/74/49 64/75/49 65/76/49
f 66/74/50 62/77/50 64/75/50
f 24/11/51 66/59/51 65/78/51
f 61/70/52 67/67/52 60/73/52
f 70/68/53 67/67/53 61/70/53
f 63/79/54 59/80/54 64/75/54
f 66/81/55 47/82/55 68/83/55
f 59/80/56 68/83/56 57/84/56
f 11/3/57 13/2/57 2/85/57
f 1/86/58 12/4/58 10/6/58
f 2/85/59 13/2/59 3/7/59
f 4/8/60 12/4/60 1/86/60
f 5/1/61 6/87/61 3/7/61
f 5/1/62 9/10/62 6/87/62
f 18/26/63 29/25/63 50/29/63
f 17/31/64 30/33/64 44/12/64
f 18/26/65 45/16/65 39/15/65
f 40/28/66 37/27/66 36/20/66 27/17/66
f 42/19/67 21/18/67 19/14/67
f 25/23/68 34/24/68 20/21/68
f 28/13/69 40/28/69 24/11/69
f 32/30/70 31/32/70 29/25/70 30/33/70
f 40/28/71 27/17/71 20/21/71
f 31/32/72 32/30/72 50/29/72
f 16/65/73 51/45/73 48/47/73 57/66/73
f 14/34/74 29/25/74 23/35/74
f 28/13/75 29/25/75 14/34/75
f 30/33/76 29/25/76 28/13/76
f 30/33/77 28/13/77 44/12/77
f 37/27/78 18/26/78 38/37/78
f 35/38/79 24/11/79 40/28/79
f 21/18/80 36/20/80 39/15/80
f 25/23/81 26/22/81 43/88/81
f 24/11/82 25/23/82 43/53/82
f 49/46/83 50/29/83 17/31/83
f 18/26/84 50/29/84 51/43/84
f 48/47/85 17/31/85 44/12/85
f 52/50/86 15/89/86 47/64/86 53/48/86
f 15/63/87 71/62/87 16/60/87
f 47/64/88 15/89/88 16/65/88
f 46/90/89 54/51/89 52/91/89
f 46/90/90 41/54/90 55/42/90 54/51/90
f 15/63/91 52/91/91 56/52/91
f 52/91/92 54/51/92 56/52/92
f 65/78/93 57/66/93 44/12/93 24/11/93
f 43/53/94 41/57/94 46/49/94
f 45/16/95 60/58/95 55/42/95
f 43/53/96 66/59/96 24/11/96
f 53/48/97 47/64/97 66/59/97
f 57/66/98 48/47/98 44/12/98
f 51/43/99 58/61/99 45/16/99 18/26/99
f 56/92/100 69/69/100 70/68/100 71/93/100
f 16/60/101 71/62/101 58/61/101
f 62/77/102 68/83/102 59/80/102
f 60/73/103 58/71/103 61/70/103
f 64/75/104 62/77/104 63/79/104
f 59/80/105 65/76/105 64/75/105
f 63/79/106 62/77/106 59/80/106
f 70/68/107 58/71/107 71/93/107
f 57/84/108 65/76/108 59/80/108
f 62/94/109 66/81/109 68/83/109
f 60/95/110 69/69/110 56/92/110
f 57/84/111 68/83/111 47/82/111
