# Blender v2.91.0 OBJ File: ''
# www.blender.org
mtllib monkey_l.mtl
o Suzanne
v -0.467437 -0.430087 0.260270
v -0.639177 0.175717 0.194471
v -0.467010 0.427944 0.260187
v -0.641233 -0.171626 0.192071
v -0.796875 0.000000 -0.187500
v 0.527631 0.203020 -0.317915
v -0.459781 0.158416 -0.840860
v -0.736958 -0.256842 0.021833
v -0.750000 0.000000 -0.195312
v -0.742188 0.000000 -0.140625
v -0.772554 0.266756 0.411683
v -0.660382 -0.153460 -0.896601
v -0.580480 0.638324 0.272835
v -0.789587 -0.300026 0.409632
v -0.807664 0.317171 0.116397
v -0.270484 -0.002929 1.032462
v 0.348697 1.021628 0.435831
v -0.680843 0.216890 -0.255448
v -0.569438 -0.644503 0.285267
v 0.305775 0.906283 -0.000454
v 0.372211 -1.018603 0.471532
v 0.294184 -0.851528 -0.013385
vt 0.530681 0.070551
vt 0.467757 0.157831
vt 0.456732 0.044224
vt 0.519132 0.185382
vt 0.519841 0.200843
vt 0.517577 0.190607
vt 0.582685 0.232100
vt 0.441795 0.270700
vt 0.606777 0.330031
vt 0.444755 0.338647
vt 0.176809 0.067722
vt 0.178355 0.214718
vt 0.129433 0.363048
vt 0.006835 0.199705
vt 0.904207 0.361302
vt 0.726323 0.288618
vt 0.836409 0.214467
vt 0.366124 0.295092
vt 0.825956 0.455045
vt 0.763149 0.431455
vt 0.873772 0.055878
vt 0.818888 0.160382
vt 0.573502 0.036498
vt 0.672231 0.292013
vt 0.235548 0.169661
vt 0.300811 0.717259
vt 0.076807 0.637670
vt 0.269185 0.610136
vt 0.243070 0.469411
vn -0.7612 0.5508 -0.3424
vn 0.0000 1.0000 0.0000
vn -0.5615 0.5056 0.6551
vn -0.9868 -0.1006 -0.1273
vn -0.9360 0.0838 -0.3418
vn -0.9985 -0.0443 -0.0317
vn 0.0064 0.9953 -0.0970
vn 0.6758 0.0207 0.7368
vn -0.3819 -0.6201 0.6853
vn -0.3778 0.6257 0.6824
vn -0.8030 -0.2538 0.5392
vn 0.4711 -0.0173 0.8819
vn 0.4523 -0.3384 -0.8252
vn -0.3104 -0.9130 -0.2646
vn -0.3414 0.9164 -0.2087
vn 0.9092 0.3716 -0.1877
vn -0.6474 0.6510 -0.3964
vn -0.1970 0.5755 -0.7937
vn -0.9945 0.0741 -0.0746
vn -0.5897 0.4231 0.6879
vn 0.4781 -0.4852 -0.7321
vn 0.8403 -0.5421 0.0090
vn 0.9293 -0.2764 -0.2448
vn 0.9764 0.0150 0.2155
vn -0.5362 0.5244 0.6615
vn -0.4309 -0.7144 -0.5513
usemtl None
s off
f 12/1/1 18/2/1 7/3/1
f 5/4/2 10/5/2 9/6/2
f 5/4/3 10/5/3 18/2/3
f 10/5/4 8/7/4 15/8/4
f 18/2/5 10/5/5 15/8/5
f 15/8/6 8/7/6 14/9/6 11/10/6
f 18/2/7 6/11/7 7/3/7
f 17/12/8 16/13/8 21/14/8
f 16/15/9 19/16/9 21/17/9
f 13/18/10 16/13/10 17/12/10
f 19/16/11 16/15/11 11/19/11
f 11/19/12 14/20/12 19/16/12
f 6/21/13 22/22/13 7/23/13
f 19/24/14 22/22/14 21/17/14
f 13/18/15 17/12/15 20/25/15
f 20/26/16 17/27/16 6/28/16
f 18/2/17 15/8/17 13/18/17
f 20/25/18 6/11/18 18/2/18 13/18/18
f 8/7/19 18/2/19 12/1/19
f 5/4/20 8/7/20 10/5/20
f 18/2/21 8/7/21 5/4/21
f 8/7/22 12/1/22 7/23/22
f 21/17/23 22/22/23 6/21/23
f 17/12/24 21/14/24 6/11/24
f 13/18/25 11/29/25 16/13/25
f 7/23/26 22/22/26 19/24/26 8/7/26
l 4 1
l 2 3
