# Blender v2.82 (sub 7) OBJ File: 'board.blend'
# www.blender.org
mtllib board.mtl
o Cube
v 160.000000 160.000000 0.000000
v 160.000000 160.000000 -8.000000
v 160.000000 -160.000000 0.000000
v 160.000000 -160.000000 -8.000000
v -160.000000 160.000000 0.000000
v -160.000000 160.000000 -8.000000
v -160.000000 -160.000000 0.000000
v -160.000000 -160.000000 -8.000000
vt 0.963077 0.955500
vt 0.040547 0.955500
vt 0.040547 0.044895
vt 0.963077 0.044895
vt 0.015297 0.438325
vt 0.971836 0.438325
vt 0.971836 0.489403
vt 0.015297 0.489403
vt 0.959514 0.350770
vt 0.020201 0.350173
vt 0.020236 0.294660
vt 0.959550 0.295257
vt 0.034102 0.026417
vt 0.960044 0.026417
vt 0.960044 0.959214
vt 0.034102 0.959214
vt 0.964454 0.460472
vt 0.025140 0.460472
vt 0.025140 0.404580
vt 0.964454 0.404580
vt 0.028493 0.407933
vt 0.028493 0.361883
vt 0.973405 0.361883
vt 0.973405 0.407933
vn 0.0000 0.0000 1.0000
vn 0.0000 -1.0000 0.0000
vn -1.0000 0.0000 0.0000
vn 0.0000 0.0000 -1.0000
vn 1.0000 0.0000 0.0000
vn 0.0000 1.0000 0.0000
usemtl Material
s off
f 1/1/1 5/2/1 7/3/1 3/4/1
f 4/5/2 3/6/2 7/7/2 8/8/2
f 8/9/3 7/10/3 5/11/3 6/12/3
f 6/13/4 2/14/4 4/15/4 8/16/4
f 2/17/5 1/18/5 3/19/5 4/20/5
f 6/21/6 5/22/6 1/23/6 2/24/6
