# Blender v2.82 (sub 7) OBJ File: 'wall.blend'
# www.blender.org
mtllib wall.mtl
o Cube
v 32.000000 32.000000 16.000000
v 32.000000 32.000000 0.000000
v 32.000000 0.000000 16.000000
v 32.000000 0.000000 0.000000
v 0.000000 32.000000 16.000000
v 0.000000 32.000000 0.000000
v 0.000000 0.000000 16.000000
v 0.000000 0.000000 0.000000
vt 0.701068 0.434652
vt 0.991754 0.434652
vt 0.991754 0.966539
vt 0.701068 0.966539
vt 0.027434 0.192629
vt 0.661421 0.192629
vt 0.661421 0.826617
vt 0.027434 0.826617
vt 0.016213 0.160337
vt 0.659494 0.160337
vt 0.659494 0.803618
vt 0.016213 0.803618
vt 0.125000 0.500000
vt 0.375000 0.500000
vt 0.375000 0.750000
vt 0.125000 0.750000
vt 0.045316 0.076096
vt 0.639156 0.076096
vt 0.639156 0.627938
vt 0.045316 0.627938
vt 0.021339 0.050269
vt 0.645603 0.050269
vt 0.645603 0.674533
vt 0.021339 0.674533
vn 0.0000 0.0000 1.0000
vn 0.0000 -1.0000 0.0000
vn -1.0000 0.0000 0.0000
vn 0.0000 0.0000 -1.0000
vn 1.0000 0.0000 0.0000
vn 0.0000 1.0000 0.0000
usemtl Material
s off
f 1/1/1 5/2/1 7/3/1 3/4/1
f 4/5/2 3/6/2 7/7/2 8/8/2
f 8/9/3 7/10/3 5/11/3 6/12/3
f 6/13/4 2/14/4 4/15/4 8/16/4
f 2/17/5 1/18/5 3/19/5 4/20/5
f 6/21/6 5/22/6 1/23/6 2/24/6
